<?xml version="1.0" encoding="utf-8"?>
<!-- Generator: Adobe Illustrator 18.1.1, SVG Export Plug-In . SVG Version: 6.00 Build 0)  -->
<svg version="1.1" id="Layer_1" xmlns="http://www.w3.org/2000/svg" xmlns:xlink="http://www.w3.org/1999/xlink" x="0px" y="0px"
	 viewBox="622 398.1 100 35" enable-background="new 622 398.1 100 35" xml:space="preserve">
<g id="Layer_2">
</g>
<g id="Layer_1_1_">
	<g>
		<polyline fill="#FFFFFF" points="672.4,442.2 618.2,442.2 618.2,389 672.4,389 672.4,442.2 		"/>
		<path fill="#F2F2F2" d="M671.5,425.6L671.5,425.6l-2.1,8.5l2.1-8.3l0,11.5V425.6 M637.3,418.5L637.3,418.5l10,5.1l-8.4,0.7
			l-3.7,5.4l0,0l3.7-5.4l8.4-0.7l0,0l0,0l0,0l-0.4-0.8l0.4,0.8L637.3,418.5 M648.7,413.3L648.7,413.3l-3.7,5.1L648.7,413.3
			L648.7,413.3 M648.7,413.3L648.7,413.3L648.7,413.3L648.7,413.3 M634.4,413l-7.2,6l0.9,6.2l0,0l-0.9-6.2L634.4,413L634.4,413
			 M624.7,411.2L624.7,411.2l-2.7,6.5l12.4-4.6l0,0L624.7,411.2 M663.7,410.9l3.9,3.2l3.9,3.2L663.7,410.9 M643.4,407.2l0.8,5.4
			l-6.9,5.9l0,0l0,0l6.9-5.9l4.5,0.7h0l0,0l-4.5-0.7L643.4,407.2L643.4,407.2 M643.4,407.2L643.4,407.2L643.4,407.2l-4.5,8.4
			L643.4,407.2L643.4,407.2 M643.4,407.2L643.4,407.2L643.4,407.2L643.4,407.2 M640.4,406.2l3,1l0,0L640.4,406.2 M635.7,406l-1.3,7
			L635.7,406 M656.5,403.3l-5.6,3.7l-2.1,6.3l0,0l2.1-6.3L656.5,403.3L656.5,403.3 M656.5,403.3l-3.6,0.2L656.5,403.3L656.5,403.3
			 M629.2,389.1L629.2,389.1l0.8,11.5L629.2,389.1 M623.2,389l-4.1,9.5l1.6-3.7L623.2,389 M635.4,389h-6.1l0,0L635.4,389 M640.7,389
			l-1,8.9l7.1-2.9l-7.1,2.8L640.7,389"/>
		<polyline fill="#FFFFFF" points="623.2,389 619.2,389 619.2,398.5 623.2,389 		"/>
		<polyline fill="#F7F7F7" points="629.3,389 623.2,389 620.8,394.7 629.2,389 629.2,389.1 629.2,389.1 629.2,389 629.2,389 
			629.2,389 629.3,389 629.3,389 		"/>
		<polyline fill="#EDEDED" points="629.2,389 620.8,394.7 626.7,395 629.2,389 		"/>
		<polyline fill="#E8E8E8" points="629.2,389 629.2,389 626.7,395 630,400.5 629.2,389.1 629.2,389 		"/>
		<polyline fill="#E8E8E8" points="620.8,394.7 619.2,398.5 626.7,395 620.8,394.7 		"/>
		<polyline fill="#F2F2F2" points="626.7,395 619.2,398.5 622.3,403.8 622.3,403.8 626.7,395 		"/>
		<polyline fill="#EDEDED" points="626.7,395 626.7,395 622.3,403.8 630,400.5 626.7,395 		"/>
		<polyline fill="#EDEDED" points="619.2,398.5 619.2,398.5 619.2,404.9 622.3,403.8 619.2,398.5 		"/>
		<polyline fill="#EDEDED" points="629.2,389 629.2,389.1 630,400.5 633.9,395.8 629.2,389 629.2,389 		"/>
		<polyline fill="#F7F7F7" points="633.9,395.8 633.9,395.8 630,400.5 635.9,404.7 635.9,404.7 633.9,395.8 		"/>
		<polyline fill="#F2F2F2" points="635.4,389 629.3,389 629.2,389 629.2,389 633.9,395.8 635.4,389 		"/>
		<polyline fill="#E8E8E8" points="630,400.5 630,400.5 622.3,403.8 635.9,404.7 635.9,404.7 630,400.5 		"/>
		<polyline fill="#EDEDED" points="633.9,395.8 635.9,404.7 635.9,404.7 635.9,404.7 635.9,404.7 639.7,397.9 633.9,395.8 		"/>
		<path fill="#FFFFFF" d="M633.9,395.8L633.9,395.8 M640.7,389h-5.4l-1.5,6.8L640.7,389"/>
		<polyline fill="#E8E8E8" points="640.7,389 633.9,395.8 639.7,397.9 640.7,389 		"/>
		<polyline fill="#EDEDED" points="640.7,389 640.7,389 639.7,397.8 646.8,395 640.7,389 		"/>
		<polyline fill="#F7F7F7" points="651,389 640.7,389 646.8,395 651,389 		"/>
		<polyline fill="#FFFFFF" points="622.3,403.8 619.2,404.9 624.7,411.2 622.3,403.8 		"/>
		<polyline fill="#E3E3E3" points="622.3,403.8 622.3,403.8 624.7,411.2 635.9,404.7 635.9,404.7 622.3,403.8 		"/>
		<polyline fill="#F7F7F7" points="635.9,404.7 624.7,411.2 634.4,413 635.7,406 635.9,404.7 		"/>
		<polyline fill="#F7F7F7" points="639.7,397.9 639.7,397.9 635.9,404.7 640.4,406.2 643.4,407.2 639.7,397.9 		"/>
		<path fill="#F7F7F7" d="M643.4,407.2l-5.7,1l-3.3,4.9L643.4,407.2 M643.4,407.2L643.4,407.2L643.4,407.2L643.4,407.2"/>
		<polyline fill="#E8E8E8" points="646.8,395 639.7,397.9 643.4,407.2 646.8,395 		"/>
		<polyline fill="#EDEDED" points="651,389 651,389 646.8,395 657.5,396.6 651,389 		"/>
		<path fill="#F7F7F7" d="M646.8,395l9.7,8.3l1-6.7L646.8,395 M646.8,395L646.8,395"/>
		<path fill="#F7F7F7" d="M643.4,407.2L643.4,407.2 M646.8,395L646.8,395l-3.4,12.2l5.6-3.4l0,0L646.8,395"/>
		<polyline fill="#FFFFFF" points="646.8,395 646.8,395 649,403.8 652.9,403.5 656.5,403.3 646.8,395 		"/>
		<path fill="#E8E8E8" d="M648.7,413.3L648.7,413.3L648.7,413.3 M643.4,407.2L643.4,407.2L643.4,407.2L643.4,407.2 M649,403.8
			l-5.6,3.4l0,0l0,0l0,0l5.3,6.2l0,0l0,0L649,403.8"/>
		<polyline fill="#E8E8E8" points="656.5,403.3 650.8,407.1 648.7,413.3 656.5,403.3 		"/>
		<path fill="#EDEDED" d="M637.3,418.5L637.3,418.5L637.3,418.5 M643.4,407.2L643.4,407.2l-9,5.8l0,0l0,0l0,0l0,0l0,0l2.9,5.5l0,0
			l0,0l0,0l1.6-2.9L643.4,407.2 M643.4,407.2L643.4,407.2L643.4,407.2L643.4,407.2"/>
		<path fill="#F7F7F7" d="M648.7,413.3L648.7,413.3L648.7,413.3L648.7,413.3L648.7,413.3 M644.2,412.6l-6.9,5.9l0,0l11.4-5.2
			L644.2,412.6"/>
		<polyline fill="#F7F7F7" points="619.2,404.9 621.9,417.6 621.9,417.6 624.7,411.2 619.2,404.9 		"/>
		<path fill="#E8E8E8" d="M634.4,413l-7.2,6l0.9,6.2L634.4,413 M634.4,413L634.4,413L634.4,413L634.4,413"/>
		<polyline fill="#EDEDED" points="619.2,404.9 619.2,404.9 619.2,420.9 621.9,417.6 621.9,417.6 619.2,404.9 		"/>
		<path fill="#FFFFFF" d="M628.1,425.2L628.1,425.2L628.1,425.2 M621.9,417.6l-2.8,3.3l8.9,4.3L621.9,417.6"/>
		<path fill="#F7F7F7" d="M634.4,413L634.4,413L634.4,413l-6.3,12.2l9.2-6.7l0,0L634.4,413 M634.4,413L634.4,413L634.4,413
			L634.4,413"/>
		<polyline fill="#EDEDED" points="648.7,413.3 644.9,418.4 646.9,422.8 647.3,423.6 648.7,413.3 		"/>
		<polyline fill="#F7F7F7" points="647.3,423.6 638.9,424.3 635.1,429.7 647.3,423.6 		"/>
		<path fill="#E8E8E8" d="M635.1,429.7L635.1,429.7L635.1,429.7 M637.3,418.5l-9.2,6.7l7.1,4.5L637.3,418.5"/>
		<polyline fill="#E8E8E8" points="619.2,420.9 624,431.4 628.1,425.2 628.1,425.2 619.2,420.9 		"/>
		<path fill="#F7F7F7" d="M624,431.4L624,431.4 M628.1,425.2L628.1,425.2l-4.1,6.3l11.1-1.7l0,0L628.1,425.2"/>
		<polyline fill="#E3E3E3" points="619.2,420.9 619.2,420.9 619.2,432.8 624,431.4 619.2,420.9 		"/>
		<polyline fill="#FFFFFF" points="624,431.4 624,431.4 619.2,432.8 627.4,437.7 624,431.4 		"/>
		<polyline fill="#F7F7F7" points="619.2,432.8 619.2,432.8 619.2,441.3 627.4,437.7 619.2,432.8 		"/>
		<polyline fill="#EDEDED" points="635.1,429.7 624,431.4 627.4,437.7 635.1,429.7 		"/>
		<polyline fill="#EDEDED" points="627.4,437.7 627.4,437.7 619.2,441.3 630.3,441.3 627.4,437.7 		"/>
		<polyline fill="#FFFFFF" points="635.1,429.7 627.4,437.7 630.3,441.3 635.1,429.7 		"/>
		<polyline fill="#F7F7F7" points="635.1,429.7 635.1,429.7 630.3,441.3 640.6,434.8 635.1,429.7 		"/>
		<polyline fill="#E8E8E8" points="647.3,423.6 647.3,423.6 635.1,429.7 640.6,434.8 647.3,423.6 		"/>
		<path fill="#EDEDED" d="M640.6,434.8L640.6,434.8 M647.3,423.6L647.3,423.6l-6.7,11.2l7.5-0.5L647.3,423.6"/>
		<polyline fill="#EDEDED" points="640.6,434.8 640.6,434.8 630.3,441.3 641.9,441.3 640.6,434.8 		"/>
		<polyline fill="#F7F7F7" points="648.1,434.3 640.6,434.8 641.9,441.3 648.1,434.3 		"/>
		<polyline fill="#E3E3E3" points="659.2,389 651,389 657.5,396.6 659.2,389 		"/>
		<polyline fill="#F7F7F7" points="659.2,389 659.2,389 657.5,396.6 665.9,394.4 659.2,389 		"/>
		<polyline fill="#E8E8E8" points="671.5,389 659.2,389 665.9,394.4 671.5,389 		"/>
		<polyline fill="#EDEDED" points="671.5,389 671.5,389 665.9,394.4 671.5,397.2 671.5,389 		"/>
		<polyline fill="#E8E8E8" points="665.9,394.4 657.5,396.6 663.1,403.6 665.9,394.4 		"/>
		<polyline fill="#E3E3E3" points="657.5,396.6 657.5,396.6 656.5,403.3 663.1,403.6 657.5,396.6 		"/>
		<path fill="#F7F7F7" d="M663.1,403.6L663.1,403.6 M665.9,394.4L665.9,394.4l-2.8,9.1l8.5-6.4L665.9,394.4"/>
		<path fill="#EDEDED" d="M656.5,403.3L656.5,403.3L656.5,403.3l-7.8,10l7.8-0.3V403.3 M656.5,403.3L656.5,403.3L656.5,403.3
			L656.5,403.3"/>
		<polyline fill="#F7F7F7" points="656.5,403.3 656.5,403.3 656.5,403.3 656.5,413 663.7,410.9 656.5,403.3 		"/>
		<polyline fill="#EDEDED" points="656.5,403.3 656.5,403.3 663.7,410.9 663.1,403.6 656.5,403.3 		"/>
		<polyline fill="#F7F7F7" points="656.5,413 656.5,413 648.7,413.3 660.4,418.8 656.5,413 		"/>
		<polyline fill="#F7F7F7" points="648.7,413.3 648.7,413.3 647.3,423.6 652.7,418.8 648.7,413.3 		"/>
		<polyline fill="#FFFFFF" points="648.7,413.3 648.7,413.3 652.7,418.8 660.4,418.8 648.7,413.3 		"/>
		<path fill="#EDEDED" d="M647.3,423.6L647.3,423.6 M647.3,423.6L647.3,423.6 M660.4,418.8h-7.8l-5.4,4.8L660.4,418.8"/>
		<polyline fill="#E3E3E3" points="663.7,410.9 656.5,413 660.4,418.8 663.7,410.9 		"/>
		<polyline fill="#F2F2F2" points="647.3,423.6 647.3,423.6 648.1,434.3 654.9,428.4 647.3,423.6 		"/>
		<polyline fill="#FFFFFF" points="648.1,434.3 648.1,434.3 641.9,441.3 652,437.8 648.1,434.3 		"/>
		<polyline fill="#F2F2F2" points="663.7,410.9 663.7,410.9 674.5,420.3 676.7,411.2 663.7,410.9 		"/>
		<polyline fill="#E8E8E8" points="660.4,418.8 660.4,418.8 647.3,423.6 664.8,426.5 660.4,418.8 		"/>
		<path fill="#EDEDED" d="M660.4,418.8L660.4,418.8 M663.7,410.9L663.7,410.9l-3.3,7.9l7.2-4.7L663.7,410.9"/>
		<polyline fill="#F7F7F7" points="667.6,414.1 660.4,418.8 664.8,426.5 667.6,414.1 		"/>
		<polyline fill="#FFFFFF" points="667.6,414.1 667.6,414.1 664.8,426.5 671.5,417.3 667.6,414.1 		"/>
		<polyline fill="#FFFFFF" points="647.3,423.6 647.3,423.6 654.9,428.4 664.8,426.5 647.3,423.6 		"/>
		<polyline fill="#F7F7F7" points="654.9,428.4 648.1,434.3 652,437.8 654.9,428.4 		"/>
		<polyline fill="#EDEDED" points="654.9,428.4 654.9,428.4 652,437.8 662.6,435.7 654.9,428.4 		"/>
		<polyline fill="#F7F7F7" points="664.8,426.5 654.9,428.4 662.6,435.7 664.8,426.5 		"/>
		<polyline fill="#F2F2F2" points="662.6,435.7 652,437.8 655.9,441.3 662.6,435.7 		"/>
		<path fill="#F7F7F7" d="M664.8,426.5L664.8,426.5 M671.5,417.3L671.5,417.3l-6.7,9.3l6.7-1V417.3"/>
		<polyline fill="#E8E8E8" points="664.8,426.5 664.8,426.5 662.6,435.7 669.4,434.1 664.8,426.5 		"/>
		<polyline fill="#F7F7F7" points="669.4,434.1 662.6,435.7 666.8,441.3 669.4,434.1 		"/>
		<polyline fill="#EDEDED" points="662.6,435.7 662.6,435.7 655.9,441.3 666.8,441.3 662.6,435.7 		"/>
		<polyline fill="#F2F2F2" points="669.4,434.1 669.4,434.1 666.8,441.3 671.5,441.3 671.5,437.3 669.4,434.1 		"/>
		<polyline fill="#F7F7F7" points="674,426.9 669.4,434.1 671.5,437.3 674.3,427.7 		"/>
		<path fill="#EDEDED" d="M671.5,397.2l-8.5,6.4l5.7,1.5L671.5,397.2 M671.5,397.2L671.5,397.2"/>
		<polyline fill="#FFFFFF" points="668.8,405.1 668.8,405.1 663.7,410.9 671.5,411.4 668.8,405.1 		"/>
		<polyline fill="#E8E8E8" points="663.1,403.6 663.1,403.6 663.7,410.9 668.8,405.1 663.1,403.6 		"/>
		<path fill="#E8E8E8" d="M637.3,418.5L637.3,418.5l1.6,5.8l8.4-0.7L637.3,418.5 M637.3,418.5L637.3,418.5L637.3,418.5L637.3,418.5"
			/>
		<polyline fill="#EDEDED" points="637.3,418.5 637.3,418.5 635.1,429.7 638.9,424.3 637.3,418.5 637.3,418.5 637.3,418.5 		"/>
		<polyline fill="#EDEDED" points="635.9,404.7 635.9,404.7 635.7,406 634.4,413 637.7,408.1 635.9,404.7 		"/>
		<polyline fill="#E8E8E8" points="635.9,404.7 635.9,404.7 637.7,408.1 643.4,407.2 640.4,406.2 635.9,404.7 		"/>
		<polyline fill="#E8E8E8" points="643.4,407.2 643.4,407.2 638.9,415.6 637.3,418.5 644.2,412.6 643.4,407.2 		"/>
		<polyline fill="#EDEDED" points="643.4,407.2 643.4,407.2 644.2,412.6 648.7,413.3 643.4,407.2 		"/>
		<path fill="#F7F7F7" d="M637.3,418.5L637.3,418.5L637.3,418.5 M644.9,418.4L644.9,418.4l-7.7,0.1l10,5.1l-0.4-0.8L644.9,418.4"/>
		<polyline fill="#E8E8E8" points="648.7,413.3 648.7,413.3 637.3,418.5 644.9,418.4 648.7,413.3 648.7,413.3 		"/>
		<polyline fill="#EDEDED" points="634.4,413 634.4,413 621.9,417.6 627.2,419 634.4,413 		"/>
		<polyline fill="#F7F7F7" points="621.9,417.6 621.9,417.6 628.1,425.2 627.2,419 621.9,417.6 		"/>
		<path fill="#E3E3E3" d="M656.5,403.3L656.5,403.3l-3.6,0.2l-4.2,0.5l1.9,3.7L656.5,403.3 M656.5,403.3L656.5,403.3"/>
		<polyline fill="#EDEDED" points="649,403.8 649,403.8 648.7,413.3 650.8,407.2 649,403.8 		"/>
		<polyline fill="#EDEDED" points="652,437.8 652,437.8 641.9,441.3 655.9,441.3 652,437.8 		"/>
	</g>
</g>
<g id="Layer_1_2_">
	<g>
		<polyline fill="#FFFFFF" points="725.5,442.2 671.3,442.2 671.3,389 725.5,389 725.5,442.2 		"/>
		<path fill="#F2F2F2" d="M723.6,425.6L723.6,425.6l-2.1,8.5l2.1-8.3l0,11.5V425.6 M689.3,418.5L689.3,418.5l10,5.1l-8.4,0.7
			l-3.7,5.4l0,0l3.7-5.4l8.4-0.7l0,0l0,0l0,0l-0.4-0.8l0.4,0.8L689.3,418.5 M700.7,413.3L700.7,413.3l-3.7,5.1L700.7,413.3
			L700.7,413.3 M700.7,413.3L700.7,413.3L700.7,413.3L700.7,413.3 M686.4,413l-7.2,6l0.9,6.2l0,0l-0.9-6.2L686.4,413L686.4,413
			 M676.7,411.2L676.7,411.2l-2.7,6.5l12.4-4.6l0,0L676.7,411.2 M715.8,410.9l3.9,3.2l3.9,3.2L715.8,410.9 M695.4,407.2l0.8,5.4
			l-6.9,5.9l0,0l0,0l6.9-5.9l4.5,0.7h0l0,0l-4.5-0.7L695.4,407.2L695.4,407.2 M695.4,407.2L695.4,407.2L695.4,407.2l-4.5,8.4
			L695.4,407.2L695.4,407.2 M695.4,407.2L695.4,407.2L695.4,407.2L695.4,407.2 M692.4,406.2l3,1l0,0L692.4,406.2 M687.7,406l-1.3,7
			L687.7,406 M708.5,403.3l-5.6,3.7l-2.1,6.3l0,0l2.1-6.3L708.5,403.3L708.5,403.3 M708.5,403.3l-3.6,0.2L708.5,403.3L708.5,403.3
			 M681.2,389.1L681.2,389.1l0.8,11.5L681.2,389.1 M675.3,389l-4.1,9.5l1.6-3.7L675.3,389 M687.4,389h-6.1l0,0L687.4,389 M692.8,389
			l-1,8.9l7.1-2.9l-7.1,2.8L692.8,389"/>
		<polyline fill="#FFFFFF" points="675.3,389 671.2,389 671.2,398.5 675.3,389 		"/>
		<polyline fill="#F7F7F7" points="681.3,389 675.3,389 672.8,394.7 681.2,389 681.2,389.1 681.2,389.1 681.2,389 681.3,389 
			681.2,389 681.3,389 681.3,389 		"/>
		<polyline fill="#EDEDED" points="681.2,389 672.8,394.7 678.7,395 681.2,389 		"/>
		<polyline fill="#E8E8E8" points="681.2,389 681.2,389 678.7,395 682.1,400.5 681.2,389.1 681.2,389 		"/>
		<polyline fill="#E8E8E8" points="671.2,394.1 671.2,398.5 678.7,395 671.2,394.1 		"/>
		<polyline fill="#F2F2F2" points="678.7,395 671.2,398.5 674.3,403.8 674.3,403.8 678.7,395 		"/>
		<polyline fill="#EDEDED" points="678.7,395 678.7,395 674.3,403.8 682.1,400.5 678.7,395 		"/>
		<polyline fill="#EDEDED" points="681.2,389 681.2,389.1 682.1,400.5 685.9,395.8 681.3,389 681.2,389 		"/>
		<polyline fill="#F7F7F7" points="685.9,395.8 685.9,395.8 682.1,400.5 687.9,404.7 687.9,404.7 685.9,395.8 		"/>
		<polyline fill="#F2F2F2" points="687.4,389 681.3,389 681.2,389 681.3,389 685.9,395.8 687.4,389 		"/>
		<polyline fill="#E8E8E8" points="682.1,400.5 682.1,400.5 674.3,403.8 687.9,404.7 687.9,404.7 682.1,400.5 		"/>
		<polyline fill="#EDEDED" points="685.9,395.8 687.9,404.7 687.9,404.7 687.9,404.7 687.9,404.7 691.8,397.9 685.9,395.8 		"/>
		<path fill="#FFFFFF" d="M685.9,395.8L685.9,395.8 M692.8,389h-5.4l-1.5,6.8L692.8,389"/>
		<polyline fill="#E8E8E8" points="692.8,389 685.9,395.8 691.8,397.9 692.8,389 		"/>
		<polyline fill="#EDEDED" points="692.8,389 692.8,389 691.8,397.8 698.8,395 692.8,389 		"/>
		<polyline fill="#F7F7F7" points="703.1,389 692.8,389 698.8,395 703.1,389 		"/>
		<polyline fill="#FFFFFF" points="674.3,403.8 669.4,403.3 676.7,411.2 674.3,403.8 		"/>
		<polyline fill="#E3E3E3" points="674.3,403.8 674.3,403.8 676.7,411.2 687.9,404.7 687.9,404.7 674.3,403.8 		"/>
		<polyline fill="#F7F7F7" points="687.9,404.7 676.7,411.2 686.4,413 687.7,406 687.9,404.7 		"/>
		<polyline fill="#F7F7F7" points="691.8,397.9 691.8,397.9 687.9,404.7 692.4,406.2 695.4,407.2 691.8,397.9 		"/>
		<path fill="#F7F7F7" d="M695.4,407.2l-5.7,1l-3.3,4.9L695.4,407.2 M695.4,407.2L695.4,407.2L695.4,407.2L695.4,407.2"/>
		<polyline fill="#E8E8E8" points="698.8,395 691.8,397.9 695.4,407.2 698.8,395 		"/>
		<polyline fill="#EDEDED" points="703.1,389 703.1,389 698.8,395 709.5,396.6 703.1,389 		"/>
		<path fill="#F7F7F7" d="M698.8,395l9.7,8.3l1-6.7L698.8,395 M698.8,395L698.8,395"/>
		<path fill="#F7F7F7" d="M695.4,407.2L695.4,407.2 M698.8,395L698.8,395l-3.4,12.2l5.6-3.4l0,0L698.8,395"/>
		<polyline fill="#FFFFFF" points="698.8,395 698.8,395 701.1,403.8 704.9,403.5 708.5,403.3 698.8,395 		"/>
		<path fill="#E8E8E8" d="M700.7,413.3L700.7,413.3L700.7,413.3 M695.4,407.2L695.4,407.2L695.4,407.2L695.4,407.2 M701.1,403.8
			l-5.6,3.4l-0.5,0.9l0,0l0,0l5.8,5.2l0,0l0,0L701.1,403.8"/>
		<polyline fill="#E8E8E8" points="708.5,403.3 702.9,407.1 700.7,413.3 708.5,403.3 		"/>
		<path fill="#EDEDED" d="M689.3,418.5L689.3,418.5L689.3,418.5 M695.4,407.2L695.4,407.2l-9,5.8l0,0l0,0l0,0l0,0l0,0l2.9,5.5l0,0
			l0,0l0,0l1.6-2.9L695.4,407.2 M695.4,407.2L695.4,407.2L695.4,407.2L695.4,407.2"/>
		<path fill="#F7F7F7" d="M700.7,413.3L700.7,413.3L700.7,413.3L700.7,413.3L700.7,413.3 M696.2,412.6l-6.9,5.9l0,0l11.4-5.2
			L696.2,412.6"/>
		<polyline fill="#F7F7F7" points="674.3,403.8 670.5,411.4 671.5,421.2 674.3,417.3 676.7,411.2 		"/>
		<path fill="#E8E8E8" d="M686.4,413l-7.2,6l0.9,6.2L686.4,413 M686.4,413L686.4,413L686.4,413L686.4,413"/>
		<path fill="#FFFFFF" d="M680.1,425.2L680.1,425.2L680.1,425.2 M674,417.6l-2.8,3.3l8.9,4.3L674,417.6"/>
		<path fill="#F7F7F7" d="M686.4,413L686.4,413L686.4,413l-6.3,12.2l9.2-6.7l0,0L686.4,413 M686.4,413L686.4,413L686.4,413
			L686.4,413"/>
		<polyline fill="#EDEDED" points="700.7,413.3 697,418.4 699,422.8 699.4,423.6 700.7,413.3 		"/>
		<polyline fill="#F7F7F7" points="699.4,423.6 690.9,424.3 687.2,429.7 699.4,423.6 		"/>
		<path fill="#E8E8E8" d="M687.2,429.7L687.2,429.7L687.2,429.7 M689.3,418.5l-9.2,6.7l7.1,4.5L689.3,418.5"/>
		<polyline fill="#E8E8E8" points="671.2,420.9 676,431.4 680.1,425.2 680.1,425.2 671.2,420.9 		"/>
		<path fill="#F7F7F7" d="M676,431.4L676,431.4 M680.1,425.2L680.1,425.2l-4.1,6.3l11.1-1.7l0,0L680.1,425.2"/>
		<polyline fill="#FFFFFF" points="676,431.4 676,431.4 664.8,426.5 679.5,437.7 676,431.4 		"/>
		<polyline fill="#F7F7F7" points="671.2,432.8 671.2,432.8 671.2,441.3 679.5,437.7 671.2,432.8 		"/>
		<polyline fill="#EDEDED" points="687.2,429.7 676,431.4 679.5,437.7 687.2,429.7 		"/>
		<polyline fill="#EDEDED" points="679.5,437.7 679.5,437.7 671.2,441.3 682.3,441.3 679.5,437.7 		"/>
		<polyline fill="#FFFFFF" points="687.2,429.7 679.5,437.7 682.3,441.3 687.2,429.7 		"/>
		<polyline fill="#F7F7F7" points="687.2,429.7 687.2,429.7 682.3,441.3 692.7,434.8 687.2,429.7 		"/>
		<polyline fill="#E8E8E8" points="699.4,423.6 699.4,423.6 687.2,429.7 692.7,434.8 699.4,423.6 		"/>
		<path fill="#EDEDED" d="M692.7,434.8L692.7,434.8 M699.4,423.6L699.4,423.6l-6.7,11.2l7.5-0.5L699.4,423.6"/>
		<polyline fill="#EDEDED" points="692.7,434.8 692.7,434.8 682.3,441.3 693.9,441.3 692.7,434.8 		"/>
		<polyline fill="#F7F7F7" points="700.2,434.3 692.7,434.8 693.9,441.3 700.2,434.3 		"/>
		<polyline fill="#E3E3E3" points="711.3,389 703.1,389 709.5,396.6 711.3,389 		"/>
		<polyline fill="#F7F7F7" points="711.3,389 711.3,389 709.5,396.6 717.9,394.4 711.3,389 		"/>
		<polyline fill="#E8E8E8" points="723.6,389 711.3,389 717.9,394.4 723.6,389 		"/>
		<polyline fill="#EDEDED" points="723.6,389 723.6,389 717.9,394.4 723.6,397.2 723.6,389 		"/>
		<polyline fill="#E8E8E8" points="717.9,394.4 709.5,396.6 715.1,403.6 717.9,394.4 		"/>
		<polyline fill="#E3E3E3" points="709.5,396.6 709.5,396.6 708.5,403.3 715.1,403.6 709.5,396.6 		"/>
		<path fill="#F7F7F7" d="M715.1,403.6L715.1,403.6 M717.9,394.4L717.9,394.4l-2.8,9.1l8.5-6.4L717.9,394.4"/>
		<path fill="#EDEDED" d="M708.5,403.3L708.5,403.3L708.5,403.3l-7.8,10l7.8-0.3V403.3 M708.5,403.3L708.5,403.3L708.5,403.3
			L708.5,403.3"/>
		<polyline fill="#F7F7F7" points="708.5,403.3 708.5,403.3 708.5,403.3 708.5,413 715.8,410.9 708.5,403.3 		"/>
		<polyline fill="#EDEDED" points="708.5,403.3 708.5,403.3 715.8,410.9 715.1,403.6 708.5,403.3 		"/>
		<polyline fill="#F7F7F7" points="723.6,397.2 723.6,397.2 720.8,405.1 723.6,411.4 723.6,397.2 		"/>
		<polyline fill="#F7F7F7" points="708.5,413 708.5,413 700.7,413.3 712.5,418.8 708.5,413 		"/>
		<polyline fill="#F7F7F7" points="700.7,413.3 700.7,413.3 699.4,423.6 704.7,418.8 700.7,413.3 		"/>
		<polyline fill="#FFFFFF" points="700.7,413.3 700.7,413.3 704.7,418.8 712.5,418.8 700.7,413.3 		"/>
		<path fill="#EDEDED" d="M699.4,423.6L699.4,423.6 M699.4,423.6L699.4,423.6 M712.5,418.8h-7.8l-5.4,4.8L712.5,418.8"/>
		<polyline fill="#E3E3E3" points="715.8,410.9 708.5,413 712.5,418.8 715.8,410.9 		"/>
		<polyline fill="#F2F2F2" points="699.4,423.6 699.4,423.6 700.2,434.3 707,428.4 699.4,423.6 		"/>
		<polyline fill="#FFFFFF" points="700.2,434.3 700.2,434.3 693.9,441.3 704.1,437.8 700.2,434.3 		"/>
		<polyline fill="#F2F2F2" points="715.8,410.9 715.8,410.9 723.6,417.3 723.6,411.4 715.8,410.9 		"/>
		<polyline fill="#E8E8E8" points="712.5,418.8 712.5,418.8 699.4,423.6 716.8,426.5 712.5,418.8 		"/>
		<path fill="#EDEDED" d="M712.5,418.8L712.5,418.8 M715.8,410.9L715.8,410.9l-3.3,7.9l7.2-4.7L715.8,410.9"/>
		<polyline fill="#F7F7F7" points="719.7,414.1 712.5,418.8 716.8,426.5 719.7,414.1 		"/>
		<polyline fill="#FFFFFF" points="719.7,414.1 719.7,414.1 716.8,426.5 723.6,417.3 719.7,414.1 		"/>
		<polyline fill="#FFFFFF" points="699.4,423.6 699.4,423.6 707,428.4 716.8,426.5 699.4,423.6 		"/>
		<polyline fill="#F7F7F7" points="707,428.4 700.2,434.3 704.1,437.8 707,428.4 		"/>
		<polyline fill="#EDEDED" points="707,428.4 707,428.4 704.1,437.8 714.6,435.7 707,428.4 		"/>
		<polyline fill="#F7F7F7" points="716.8,426.5 707,428.4 714.6,435.7 716.8,426.5 		"/>
		<polyline fill="#F2F2F2" points="714.6,435.7 704.1,437.8 708,441.3 714.6,435.7 		"/>
		<path fill="#F7F7F7" d="M716.8,426.5L716.8,426.5 M723.6,417.3L723.6,417.3l-6.7,9.3l6.7-1V417.3"/>
		<polyline fill="#E8E8E8" points="716.8,426.5 716.8,426.5 714.6,435.7 721.4,434.1 716.8,426.5 		"/>
		<path fill="#EDEDED" d="M723.6,425.6l-6.7,1l4.6,7.6L723.6,425.6 M723.6,425.6L723.6,425.6"/>
		<polyline fill="#F7F7F7" points="721.4,434.1 714.6,435.7 718.8,441.3 721.4,434.1 		"/>
		<polyline fill="#EDEDED" points="714.6,435.7 714.6,435.7 708,441.3 718.8,441.3 714.6,435.7 		"/>
		<polyline fill="#F2F2F2" points="721.4,434.1 721.4,434.1 718.8,441.3 723.6,441.3 723.6,437.3 721.4,434.1 		"/>
		<polyline fill="#F7F7F7" points="723.5,425.8 721.4,434.1 723.6,437.3 723.5,425.8 		"/>
		<path fill="#EDEDED" d="M723.6,397.2l-8.5,6.4l5.7,1.5L723.6,397.2 M723.6,397.2L723.6,397.2"/>
		<polyline fill="#FFFFFF" points="720.8,405.1 720.8,405.1 715.8,410.9 723.6,411.4 720.8,405.1 		"/>
		<polyline fill="#E8E8E8" points="715.1,403.6 715.1,403.6 715.8,410.9 720.8,405.1 715.1,403.6 		"/>
		<path fill="#E8E8E8" d="M689.3,418.5L689.3,418.5l1.6,5.8l8.4-0.7L689.3,418.5 M689.3,418.5L689.3,418.5L689.3,418.5L689.3,418.5"
			/>
		<polyline fill="#EDEDED" points="689.3,418.5 689.3,418.5 687.2,429.7 690.9,424.3 689.3,418.5 689.3,418.5 689.3,418.5 		"/>
		<polyline fill="#EDEDED" points="687.9,404.7 687.9,404.7 687.7,406 686.4,413 689.8,408.1 687.9,404.7 		"/>
		<polyline fill="#E8E8E8" points="687.9,404.7 687.9,404.7 689.8,408.1 695.4,407.2 692.4,406.2 687.9,404.7 		"/>
		<polyline fill="#E8E8E8" points="695.4,407.2 695.4,407.2 690.9,415.6 689.3,418.5 696.2,412.6 695.4,407.2 		"/>
		<polyline fill="#EDEDED" points="695.4,407.2 695.4,407.2 696.2,412.6 700.7,413.3 695.4,407.2 		"/>
		<path fill="#F7F7F7" d="M689.3,418.5L689.3,418.5L689.3,418.5 M697,418.4L697,418.4l-7.7,0.1l10,5.1l-0.4-0.8L697,418.4"/>
		<polyline fill="#E8E8E8" points="700.7,413.3 700.7,413.3 689.3,418.5 697,418.4 700.7,413.3 700.7,413.3 		"/>
		<polyline fill="#EDEDED" points="686.4,413 686.4,413 674,417.6 679.2,419 686.4,413 		"/>
		<polyline fill="#F7F7F7" points="674,417.6 674,417.6 680.1,425.2 679.2,419 674,417.6 		"/>
		<path fill="#E3E3E3" d="M708.5,403.3L708.5,403.3l-3.6,0.2l-3.8,0.2l1.4,4.3L708.5,403.3 M708.5,403.3L708.5,403.3"/>
		<polyline fill="#EDEDED" points="701.1,403.8 701.1,403.8 700.7,413.3 702.9,407.1 701.1,403.8 		"/>
		<polyline fill="#EDEDED" points="704.1,437.8 704.1,437.8 693.9,441.3 708,441.3 704.1,437.8 		"/>
	</g>
</g>
</svg>
